<svg id="Layer_1" data-name="Layer 1" xmlns="http://www.w3.org/2000/svg" viewBox="0 0 850.39 850.39"><defs><style>.cls-1,.cls-10,.cls-2{fill:#9ec8ff;}.cls-1,.cls-14,.cls-15,.cls-16,.cls-4{opacity:0.5;}.cls-16,.cls-3{fill:#fff;}.cls-13,.cls-4{fill:#9bd6e8;}.cls-5{fill:#303c60;}.cls-6{fill:#f09959;}.cls-7{fill:#2e5b9a;}.cls-8{fill:#f39892;}.cls-9{fill:#f5dc95;}.cls-10{opacity:0.3;}.cls-11{fill:#e38540;}.cls-12{fill:#a2dff2;}.cls-14{fill:#dbe5eb;}</style></defs><title>kimia</title><path class="cls-1" d="M243.49,297.85c30.19-28,75.92-62.79,169.56-49.2,61.83,9,200.85,37.23,269.82,74.92s85.32,101.28,43.84,171.16-103.6,94.5-103.6,94.5H220.89s-122.46,31.91-119.14-87.7C104,419.31,209,329.89,243.49,297.85Z"/><path class="cls-1" d="M99.31,426.54C42,440,48.21,240.32,155.25,223.71c72-11.18,133.66,19.11,116.25,27.7C158.92,307,114.27,423,99.31,426.54Z"/><path class="cls-2" d="M279.66,401.54H83.45a.51.51,0,0,1-.52-.51V298.59a.51.51,0,0,1,.52-.51H279.66a.51.51,0,0,1,.52.51V401A.51.51,0,0,1,279.66,401.54Zm-195.7-1H279.15V299.1H84Z"/><path class="cls-2" d="M279.66,367.39H83.45a.51.51,0,0,1-.52-.51.51.51,0,0,1,.52-.51H279.66a.51.51,0,0,1,.52.51A.51.51,0,0,1,279.66,367.39Z"/><path class="cls-2" d="M279.66,333.25H83.45a.52.52,0,1,1,0-1H279.66a.52.52,0,1,1,0,1Z"/><path class="cls-2" d="M214.26,401.54a.51.51,0,0,1-.52-.51V298.59a.52.52,0,0,1,1,0V401A.51.51,0,0,1,214.26,401.54Z"/><path class="cls-2" d="M148.85,401.54a.51.51,0,0,1-.51-.51V298.59a.52.52,0,0,1,1,0V401A.51.51,0,0,1,148.85,401.54Z"/><path class="cls-3" d="M408.54,428.27l-85.91,26.25-90.82,64.92-10.92,69.79s35.74.06,85.75.08c108.35,0,283.7-.15,307.6-1.76-38.47-51.21-102.06-140.72-102.06-140.72l-66-14.63Z"/><path class="cls-4" d="M340.18,569.19s-23.46,14.94-37.75,18.36,42.69,1.59,42.69,1.59Z"/><polygon class="cls-4" points="375.44 438.39 376.75 470.4 407 485.6 394.01 505.33 446.4 586.32 450.37 586.32 483.82 494.74 475.59 480.13 490.12 467.49 475.49 438.69 379.38 437.18 375.44 438.39"/><path class="cls-3" d="M417.77,409.59l-38.24,27.59L389.8,475.1l25.91,4.12s-12.33,17.08-10.58,19.43,46.13,77.91,46.13,77.91L480,493.08,468,477s18.64-8.59,18.05-10.95-10.37-27.38-10.37-27.38l-25.56-19.37Z"/><path class="cls-5" d="M460.27,312.8s-30,1.17-40,15.31,1.17,33.78-4.71,45.15,0,29.6,4.47,30.75S460.27,312.8,460.27,312.8Z"/><polygon class="cls-6" points="434.64 369.38 406.18 436.63 446.99 519.44 459.03 440.62 454.07 434.02 472.13 374.92 434.64 369.38"/><path class="cls-4" d="M511.78,486.49c.4,43.57-15.7,102.06-15.7,102.06s5.1,2.24,5.89,0,5.1,0,5.1,0S511.78,559.71,513,538,511.78,486.49,511.78,486.49Z"/><path class="cls-4" d="M317.07,560.68c7.12-6.52,45.34-35.06,56-51.93,2.23-3.54.4-9.83,0-11.67,24.07-4,28.76-13.36,28.76-13.36l-24-30.56s-32.38,7.88-58.5,17.17c-13.93,5-40.38,17.78-62,28.66l-25.45,20.45-4.36,27.89c.86,5.38,1.64,9.44,2.07,9.93,1.34,1.56,2.81,30.07,2.91,31.88h.8C239.9,588.31,282.13,592.65,317.07,560.68Z"/><path class="cls-2" d="M388.32,446c8.88-2.76,15.76-1.84,12.84,2.64a35.86,35.86,0,0,1-4.09,4.55l-19.28-2.9Z"/><polygon class="cls-3" points="521.11 496.22 519.93 499.39 376.91 449.12 379.76 441.42 521.11 496.22"/><path class="cls-7" d="M520.18,499.91l-.38-.13L376.38,449.37l3.14-8.49.39.15,141.72,55Zm-142.74-51,142.25,50,.89-2.41L380,442Z"/><path class="cls-3" d="M574.87,534.08C610.44,525.15,635.05,532,650,563c5.54,11.51,8.5,24.51,4.64,23.91s-60.78.64-60.78.64Z"/><path class="cls-8" d="M387.31,446.55c-1.45,4.89-9,6.95-16.86,4.61s-13.06-8.18-11.61-13.07,9-6.95,16.86-4.61S388.76,441.67,387.31,446.55Z"/><path class="cls-2" d="M440.1,479.69c-1.86-3.5-21.61-11.31-18.3-10.18s13.86,4.74,10.54.85-28.7-21.11-36.78-21.34c-7.57-.2-18.17-1.53-23.5,2.56-13.2,10.15-24.74,14.11-24.74,14.11s-7.92,3.06-8.27,3.12c-16.77,3-25.71,63.21-25.71,63.21,2.13,0,38.73-29.12,56.14-42.91,3.45,1.2,14.35.67,23-3.8a114.79,114.79,0,0,0,11.28-7.22s11.76,3.4,15.18,4.31C428.09,484.87,442,483.19,440.1,479.69Z"/><path class="cls-3" d="M226.92,523.16c-14.8,17.72-18.16,62-2.45,64.18,36.86,5,142.64-82.18,142.64-82.18L350,464S248,497.89,226.92,523.16Z"/><path class="cls-7" d="M750,592.65H82.73a3.17,3.17,0,1,1,0-6.33H750a3.17,3.17,0,0,1,0,6.33Z"/><path class="cls-2" d="M518.65,498.11a1.12,1.12,0,0,1-.35-.06l-16.9-6.18a1,1,0,0,1-.61-1.32,1,1,0,0,1,1.32-.61l16.9,6.18a1,1,0,0,1-.36,2Z"/><path class="cls-2" d="M498.93,490.9a.84.84,0,0,1-.35-.07l-4.14-1.51a1,1,0,1,1,.71-1.93l4.13,1.51a1,1,0,0,1-.35,2Z"/><path class="cls-2" d="M491.77,488.28a.84.84,0,0,1-.35-.07l-35-12.81a1,1,0,1,1,.71-1.93l35,12.81a1,1,0,0,1,.61,1.32A1,1,0,0,1,491.77,488.28Z"/><path class="cls-2" d="M450.37,473.13a1.12,1.12,0,0,1-.35-.06l-9.53-3.49a1,1,0,1,1,.7-1.93l9.54,3.49a1,1,0,0,1,.61,1.31A1,1,0,0,1,450.37,473.13Z"/><path class="cls-2" d="M436.38,468A1,1,0,0,1,436,468l-8.09-3a1,1,0,1,1,.71-1.93l8.08,3a1,1,0,0,1,.62,1.31A1,1,0,0,1,436.38,468Z"/><path class="cls-3" d="M500.34,577.32a6.46,6.46,0,0,1-6.46-6.45V505.33h12.91v65.54A6.45,6.45,0,0,1,500.34,577.32Z"/><path class="cls-7" d="M500.34,577.73a6.87,6.87,0,0,1-6.87-6.86V504.92H507.2v65.95A6.86,6.86,0,0,1,500.34,577.73Zm-6-72v65.13a6,6,0,0,0,12.09,0V505.74Z"/><path class="cls-3" d="M521.11,577.32a6.46,6.46,0,0,1-6.46-6.45V505.33h12.91v65.54A6.45,6.45,0,0,1,521.11,577.32Z"/><path class="cls-7" d="M521.11,577.73a6.87,6.87,0,0,1-6.87-6.86V504.92H528v65.95A6.86,6.86,0,0,1,521.11,577.73Zm-6.05-72v65.13a6,6,0,0,0,12.09,0V505.74Z"/><path class="cls-3" d="M542.73,577.32a6.45,6.45,0,0,1-6.45-6.45V505.33h12.91v65.54A6.46,6.46,0,0,1,542.73,577.32Z"/><path class="cls-7" d="M542.73,577.73a6.86,6.86,0,0,1-6.86-6.86V504.92H549.6v65.95A6.87,6.87,0,0,1,542.73,577.73Zm-6-72v65.13a6,6,0,0,0,12.09,0V505.74Z"/><path class="cls-2" d="M542.73,574.31a4.58,4.58,0,0,1-4.57-4.58V523.26h9.15v46.47A4.58,4.58,0,0,1,542.73,574.31Z"/><path class="cls-2" d="M521.11,574.31a4.58,4.58,0,0,1-4.58-4.58v-27.3h9.15v27.3A4.58,4.58,0,0,1,521.11,574.31Z"/><path class="cls-3" d="M563.5,577.32a6.45,6.45,0,0,1-6.45-6.45V505.33H570v65.54A6.46,6.46,0,0,1,563.5,577.32Z"/><path class="cls-7" d="M563.5,577.73a6.86,6.86,0,0,1-6.86-6.86V504.92h13.73v65.95A6.87,6.87,0,0,1,563.5,577.73Zm-6-72v65.13a6,6,0,0,0,12.09,0V505.74Z"/><path class="cls-2" d="M563.5,574.34a4.44,4.44,0,0,1-4.44-4.44V518.52H568V569.9A4.44,4.44,0,0,1,563.5,574.34Z"/><path class="cls-2" d="M522.13,518.7l.52,11.16a1.54,1.54,0,0,1-3.08.15.75.75,0,0,1,0-.15l.51-11.16a1,1,0,0,1,1.07-1A1,1,0,0,1,522.13,518.7Z"/><path class="cls-2" d="M522.13,500.23l.45,11.52a1.47,1.47,0,1,1-2.94.11.2.2,0,0,1,0-.11l.44-11.52a1,1,0,0,1,2,0Z"/><rect class="cls-9" x="479.98" y="548.79" width="104.42" height="6.79" rx="3.4"/><rect class="cls-9" x="479.98" y="579.53" width="104.42" height="6.79" rx="3.4"/><path class="cls-9" d="M486,552.18h0a3.37,3.37,0,0,1,3.37,3.37v24a3.38,3.38,0,0,1-3.38,3.38h0a3.37,3.37,0,0,1-3.37-3.37v-24A3.37,3.37,0,0,1,486,552.18Z"/><rect class="cls-9" x="575.58" y="552.18" width="6.2" height="30.74" rx="3.1"/><path class="cls-10" d="M434.72,414.7c9.56,36.07,30.39,35.67,39.54,35.67,7.38,0,13.5-4.39,17.37-8.1l-16-3.54v0l-25.56-19.37Z"/><path class="cls-11" d="M434.64,369.38,430,380.27c2.05,46.57,15.22,64.85,27.51,70.1l1.49-9.75-4.95-6.6,18.05-59.1Z"/><path class="cls-5" d="M539.46,351.07c-12.66,21.2-16.71,26.25-30.43,27.26s1.17-35.8,1.17-35.8Z"/><ellipse class="cls-6" cx="479.83" cy="371.84" rx="51.47" ry="40.38" transform="translate(39.64 789.84) rotate(-81.29)"/><path class="cls-3" d="M685.79,567.69a10.3,10.3,0,0,1-10.3-10.3V455.81H696.1V557.39A10.3,10.3,0,0,1,685.79,567.69Z"/><path class="cls-7" d="M685.79,568.1a10.72,10.72,0,0,1-10.71-10.71v-102h21.43v102A10.73,10.73,0,0,1,685.79,568.1ZM675.9,456.22V557.39a9.9,9.9,0,0,0,19.79,0V456.22Z"/><path class="cls-12" d="M685.79,563a7.35,7.35,0,0,1-7.35-7.35V494h14.71v61.66A7.35,7.35,0,0,1,685.79,563Z"/><path class="cls-9" d="M703.11,538H666.7a3,3,0,0,1,0-6h36.41a3,3,0,0,1,0,6Z"/><rect class="cls-9" x="663.71" y="574.31" width="42.4" height="11.61" rx="5.81"/><rect class="cls-9" x="667.63" y="535.02" width="5.5" height="44.51"/><rect class="cls-9" x="698.25" y="535.02" width="5.5" height="44.51"/><path class="cls-12" d="M691.43,482.36a2.8,2.8,0,1,1-2.79-2.79A2.79,2.79,0,0,1,691.43,482.36Z"/><circle class="cls-12" cx="682.06" cy="469.41" r="1.37"/><path class="cls-12" d="M691,462a3.44,3.44,0,1,1-3.43-3.44A3.44,3.44,0,0,1,691,462Z"/><path class="cls-3" d="M685.84,449.78a1.72,1.72,0,1,1-1.72-1.72A1.72,1.72,0,0,1,685.84,449.78Z"/><path class="cls-12" d="M692.46,476.28a1.47,1.47,0,1,1-1.47-1.47A1.47,1.47,0,0,1,692.46,476.28Z"/><circle class="cls-3" cx="682.06" cy="501.3" r="2.85"/><path class="cls-3" d="M690,506.7a1.33,1.33,0,1,1-1.32-1.32A1.33,1.33,0,0,1,690,506.7Z"/><path class="cls-3" d="M685.84,524.66a.94.94,0,1,1-.93-.93A.93.93,0,0,1,685.84,524.66Z"/><path class="cls-3" d="M690,544.29a2.65,2.65,0,1,1-2.65-2.65A2.65,2.65,0,0,1,690,544.29Z"/><circle class="cls-3" cx="683.97" cy="551.55" r="1.82"/><path class="cls-3" d="M692.77,439a3.26,3.26,0,1,1-3.25-3.25A3.25,3.25,0,0,1,692.77,439Z"/><path class="cls-3" d="M682.16,430.22a2.1,2.1,0,1,1-2.1-2.1A2.1,2.1,0,0,1,682.16,430.22Z"/><path class="cls-3" d="M173.23,498.22V461.65H149v36.57a7.49,7.49,0,0,1-.22,1.82l-19.08,77.45a7.6,7.6,0,0,0,7.38,9.42h48.11a7.6,7.6,0,0,0,7.38-9.42L173.45,500A8,8,0,0,1,173.23,498.22Z"/><path class="cls-7" d="M185.16,587.32H137.05a8,8,0,0,1-7.78-9.92l19.08-77.46a7.17,7.17,0,0,0,.21-1.72v-37h25.08v37a7.17,7.17,0,0,0,.21,1.72l19.08,77.46a8,8,0,0,1-7.77,9.92ZM149.38,462.06v36.16a8.18,8.18,0,0,1-.23,1.91l-19.08,77.46a7.18,7.18,0,0,0,7,8.91h48.11a7.18,7.18,0,0,0,7-8.91l-19.09-77.46a8.18,8.18,0,0,1-.23-1.91V462.06Z"/><path class="cls-2" d="M172.34,505.63c-2.45-.06-13.36,3.65-23.68,3.12l-15.24,63.66c-.93,4.68,1.92,9.21,5.8,9.21H183c3.87,0,6.72-4.53,5.79-9.21Z"/><path class="cls-3" d="M173.51,526.78a4.58,4.58,0,1,1-4.58-4.58A4.58,4.58,0,0,1,173.51,526.78Z"/><path class="cls-2" d="M157.69,503.57a2,2,0,1,1-2-2A2,2,0,0,1,157.69,503.57Z"/><circle class="cls-2" cx="163.74" cy="482.7" r="2.1"/><path class="cls-2" d="M163,471.25a4.4,4.4,0,1,1-4.4-4.39A4.4,4.4,0,0,1,163,471.25Z"/><circle class="cls-3" cx="160.29" cy="557.68" r="4.07"/><path class="cls-3" d="M155.52,514.65a3,3,0,1,1-3-3A3,3,0,0,1,155.52,514.65Z"/><circle class="cls-3" cx="147.57" cy="541.18" r="1.76"/><path class="cls-3" d="M147.57,574.83a3.17,3.17,0,1,1-3.17-3.16A3.17,3.17,0,0,1,147.57,574.83Z"/><path class="cls-3" d="M196.16,520.3V493.08H178.1V520.3a5.61,5.61,0,0,1-.17,1.35l-14.2,57.66a5.66,5.66,0,0,0,5.49,7H205a5.66,5.66,0,0,0,5.5-7l-14.21-57.66A5.6,5.6,0,0,1,196.16,520.3Z"/><path class="cls-7" d="M205,586.73H169.22a6.08,6.08,0,0,1-5.89-7.52l14.21-57.66a5.28,5.28,0,0,0,.15-1.25V492.67h18.88V520.3a5.28,5.28,0,0,0,.15,1.25l14.2,57.66a6.07,6.07,0,0,1-5.89,7.52Zm-26.52-93.24V520.3a5.94,5.94,0,0,1-.18,1.45l-14.2,57.66a5.24,5.24,0,0,0,5.09,6.5H205a5.25,5.25,0,0,0,5.1-6.5l-14.21-57.66a6.46,6.46,0,0,1-.17-1.45V493.49Z"/><path class="cls-13" d="M200.34,549.69c-1.17,1.19-5.84,1.4-8.37,1.19-7.92-.64-10.34-2.61-17.68-3l-6.82,28.75c-.66,3.33,1.36,6.54,4.11,6.54h31.09c2.76,0,4.78-3.21,4.12-6.54Z"/><path class="cls-13" d="M197.2,543.8a3.4,3.4,0,1,1-3.4-3.4A3.4,3.4,0,0,1,197.2,543.8Z"/><circle class="cls-13" cx="192.75" cy="531.35" r="1.52"/><path class="cls-13" d="M188,507.19a1.57,1.57,0,1,1-1.57-1.56A1.56,1.56,0,0,1,188,507.19Z"/><path class="cls-13" d="M189.75,514.92a3.28,3.28,0,1,1-3.28-3.27A3.27,3.27,0,0,1,189.75,514.92Z"/><path class="cls-3" d="M185.06,569.19a3,3,0,1,1-3-3A3,3,0,0,1,185.06,569.19Z"/><path class="cls-3" d="M183.78,553.61a2.23,2.23,0,1,1-2.22-2.23A2.22,2.22,0,0,1,183.78,553.61Z"/><path class="cls-3" d="M194.06,570.5a1.31,1.31,0,1,1-1.31-1.31A1.3,1.3,0,0,1,194.06,570.5Z"/><path class="cls-3" d="M177.05,577.32A2.36,2.36,0,1,1,174.7,575,2.35,2.35,0,0,1,177.05,577.32Z"/><circle class="cls-3" cx="197.33" cy="578.08" r="3.53" transform="translate(-410.73 636.26) rotate(-76.62)"/><path class="cls-3" d="M501.7,376.17c-.11-.11-2.75-2.73-8-2.29l-.34-4.09c7.32-.61,11.16,3.38,11.32,3.55l-3,2.81Z"/><path class="cls-14" d="M492.1,381.29c-3.54,9.2-12.56,14.51-20.15,11.86s-10.89-12.25-7.35-21.45,12.55-14.5,20.15-11.86S495.63,372.09,492.1,381.29Z"/><ellipse class="cls-14" cx="509.52" cy="385.29" rx="16.61" ry="10.91" transform="translate(-40.84 709.58) rotate(-67.6)"/><path class="cls-3" d="M476,394.85a13.36,13.36,0,0,1-4.37-.73,13.67,13.67,0,0,1-7.85-7.32,20,20,0,0,1-.12-15.47c3.72-9.69,13.35-15.28,21.45-12.46a13.69,13.69,0,0,1,7.84,7.32,20,20,0,0,1,.13,15.47C490,389.65,482.91,394.85,476,394.85Zm4.7-34.66c-6.09,0-12.37,4.7-15.13,11.88a17.94,17.94,0,0,0,.08,13.87A11.2,11.2,0,0,0,476,392.8c6.09,0,12.37-4.69,15.13-11.88a17.94,17.94,0,0,0-.07-13.87,11.48,11.48,0,0,0-6.66-6.24A11.36,11.36,0,0,0,480.68,360.19Z"/><path class="cls-3" d="M506.07,402.24a8.61,8.61,0,0,1-2.85-.48,9.17,9.17,0,0,1-5.27-5.05c-1.92-4.14-1.81-9.89.3-15.38A23.07,23.07,0,0,1,505.84,371c3.35-2.46,6.89-3.22,10-2.14a9.17,9.17,0,0,1,5.27,5.05c1.92,4.14,1.81,9.89-.3,15.38a23,23,0,0,1-7.59,10.37A12.2,12.2,0,0,1,506.07,402.24ZM513,370.39c-4.74,0-10.11,4.73-12.78,11.67-1.92,5-2.05,10.14-.36,13.79a7.18,7.18,0,0,0,4.09,4c5.17,1.81,11.89-3.27,15-11.3,1.92-5,2-10.14.36-13.79a7.18,7.18,0,0,0-4.09-4A6.5,6.5,0,0,0,513,370.39Z"/><g class="cls-15"><path class="cls-16" d="M521.06,377l-23.44,12.21c-.12,3.71.79,7,2.59,9.17l20.41-11.93A20.12,20.12,0,0,0,521.06,377Z"/><path class="cls-16" d="M517.62,371,500,379.81c-.29.61-.56,1.24-.81,1.88a24.77,24.77,0,0,0-1.16,4L520,374A8.75,8.75,0,0,0,517.62,371Z"/><path class="cls-16" d="M491.13,365c-8.54,4.06-19.18,9.11-27.93,13.25a16.6,16.6,0,0,0,2.67,10.16l27.57-12.84A17.09,17.09,0,0,0,491.13,365Z"/><path class="cls-16" d="M465,370.72l21.72-10a13,13,0,0,0-2-.9C477.43,357.29,468.78,362.13,465,370.72Z"/></g><path class="cls-5" d="M448.87,374.21c-6.86,3.18-3.9-8.64-4-18.56-.09-6.57-11.92-42.26,5.52-50.21s33-2.41,43.15-6.53,38.88,4.17,41.82,18c2.34,11,8,18.54,12,25.61s-10.06,19.23-21.39,20c-16.89,1.18-39.44-30.91-51.66-28.26S454.56,371.57,448.87,374.21Z"/><polygon class="cls-3" points="439.78 344.74 468.85 364.48 465.36 369.08 438.54 346.37 439.78 344.74"/><path class="cls-6" d="M445,358.41c0,9.48-4.28,18.45-10.34,18.45s-11-7.68-11-17.17,4.92-17.16,11-17.16S445,348.93,445,358.41Z"/><path class="cls-4" d="M615.62,539.87c17.07,3.93,26.1,14,29.64,24.67s9.31,21-5.16,22.11-31.81-2.69-32.37-3.73S615.62,539.87,615.62,539.87Z"/><path class="cls-2" d="M625.24,542.43c18.84,8.14,16.47,36.66,10.72,39.06-26.82,11.16-40.33,3.79-51.55-2S575.58,563,575.58,563s.51-5.82,18.25-13.27C606.78,544.29,625.24,542.43,625.24,542.43Z"/><path class="cls-2" d="M632,546.94c-14.27-14.18-34-12.4-42.83-8.92s-23.8,9.46-13.54,10.77,23.75-.58,28.46.94S632,546.94,632,546.94Z"/><path class="cls-3" d="M288.86,352.71H267.78a1,1,0,0,1-.89-.51l-10.54-18.26a1,1,0,0,1,0-1l10.54-18.25a1,1,0,0,1,.89-.52h21.08a1,1,0,0,1,.89.52l10.54,18.25a1,1,0,0,1,0,1L289.75,352.2A1,1,0,0,1,288.86,352.71Zm-20.49-2h19.9l10-17.23-10-17.23h-19.9l-9.95,17.23Z"/><path class="cls-3" d="M294.48,333.94a.5.5,0,0,1-.44-.26l-8.08-14a.52.52,0,0,1,.18-.71.53.53,0,0,1,.71.19l8.08,14a.51.51,0,0,1-.19.7A.48.48,0,0,1,294.48,333.94Z"/><path class="cls-3" d="M262.15,333.94a.47.47,0,0,1-.25-.07.51.51,0,0,1-.19-.7l8.08-14a.52.52,0,1,1,.89.52l-8.08,14A.52.52,0,0,1,262.15,333.94Z"/><path class="cls-3" d="M286.4,347.94H270.24a.52.52,0,1,1,0-1H286.4a.52.52,0,0,1,0,1Z"/><path class="cls-3" d="M331.22,352.71a1,1,0,0,1-.89-.51l-10.54-18.26a1,1,0,0,1,0-1l10.54-18.25a1,1,0,0,1,.89-.52H352.3a1,1,0,0,1,0,2.06H331.81l-9.95,17.23,10.25,17.74a1,1,0,0,1-.38,1.4A1,1,0,0,1,331.22,352.71Z"/><path class="cls-3" d="M256.93,371a1,1,0,0,1-.51-.14,1,1,0,0,1-.38-1.4l10.54-18.26a1,1,0,0,1,1.41-.37,1,1,0,0,1,.37,1.4l-10.54,18.26A1,1,0,0,1,256.93,371Z"/><path class="cls-3" d="M352.3,316.2a1,1,0,0,1-.89-1.54L362,296.4a1,1,0,1,1,1.78,1l-10.54,18.25A1,1,0,0,1,352.3,316.2Z"/><path class="cls-3" d="M320.68,334.45H299.59a1,1,0,0,1-.88-.51l-10.55-18.26a1,1,0,0,1,0-1l10.55-18.26a1,1,0,1,1,1.77,1l-10.24,17.74,9.95,17.23h20.49a1,1,0,0,1,0,2.05Z"/><path class="cls-3" d="M399,291.46H369.28a2.73,2.73,0,1,1,0-5.46H399a2.73,2.73,0,1,1,0,5.46Z"/><path class="cls-3" d="M399,283.26H369.28a2.73,2.73,0,1,1,0-5.46H399a2.73,2.73,0,1,1,0,5.46Z"/><path class="cls-3" d="M375.08,321.13H362.31a3,3,0,1,1,0-6h12.77a3,3,0,1,1,0,6Z"/><rect class="cls-3" x="301.55" y="286" width="18.15" height="7.42" rx="3.71"/><rect class="cls-3" x="335.12" y="354.9" width="28.89" height="8.59" rx="4.29"/><rect class="cls-3" x="235.57" y="372.27" width="19.52" height="7.22" rx="3.61"/><path class="cls-3" d="M648.5,380.4H631.84a1,1,0,0,1-.89-.52l-8.33-14.43a1,1,0,0,1,0-1L631,350a1,1,0,0,1,.89-.52H648.5a1,1,0,0,1,.89.52l8.33,14.43a1,1,0,0,1,0,1l-8.33,14.43A1,1,0,0,1,648.5,380.4Zm-16.07-2.06h15.48l7.74-13.4-7.74-13.4H632.43l-7.74,13.4Z"/><path class="cls-3" d="M674.11,395.18H657.45a1,1,0,0,1-.89-.51l-8.33-14.43a1,1,0,0,1,0-1l8.33-14.43a1,1,0,0,1,.89-.51h16.66a1,1,0,0,1,.89.51l8.33,14.43a1,1,0,0,1,0,1L675,394.67A1,1,0,0,1,674.11,395.18ZM658,393.13h15.48l7.73-13.41-7.73-13.4H658l-7.74,13.4Z"/><path class="cls-3" d="M622.89,395.18a1,1,0,0,1-.51-.14,1,1,0,0,1-.38-1.4l8.33-14.43a1,1,0,0,1,1.78,1l-8.33,14.43A1,1,0,0,1,622.89,395.18Z"/><path class="cls-3" d="M707.57,395a1,1,0,0,1-.89-.51l-8.33-14.43a1,1,0,0,1,1.78-1l8.33,14.43a1,1,0,0,1-.89,1.54Z"/><path class="cls-3" d="M622.89,366.32H606.23a1,1,0,1,1,0-2.05h16.66a1,1,0,1,1,0,2.05Z"/><path class="cls-3" d="M699.1,380.4H682.44a1,1,0,0,1-.89-.52l-8.33-14.43a1,1,0,0,1,0-1L681.55,350a1,1,0,0,1,1.78,1l-8,13.92,7.74,13.4H699.1a1,1,0,0,1,0,2.06Z"/><path class="cls-3" d="M678.29,380.49a.53.53,0,0,1-.45-.25l-6.71-11.64a.51.51,0,0,1,.89-.51l6.71,11.63a.51.51,0,0,1-.44.77Z"/><path class="cls-3" d="M633.77,376.83a.5.5,0,0,1-.44-.26l-6.72-11.63a.51.51,0,1,1,.89-.51l6.72,11.63a.52.52,0,0,1-.19.7A.48.48,0,0,1,633.77,376.83Z"/><path class="cls-3" d="M652.82,365.45a.53.53,0,0,1-.45-.25l-6.71-11.64a.51.51,0,1,1,.88-.51l6.72,11.63a.51.51,0,0,1-.19.7A.47.47,0,0,1,652.82,365.45Z"/><rect class="cls-3" x="698" y="371.25" width="19.13" height="5.82" rx="2.91"/><rect class="cls-3" x="674.11" y="338.94" width="16.66" height="8.1" rx="4.05"/><rect class="cls-3" x="701.99" y="396.62" width="23.22" height="6.25" rx="3.12"/><rect class="cls-3" x="603.45" y="396.79" width="22.22" height="5.9" rx="2.95"/><rect class="cls-3" x="584.01" y="361.39" width="19.44" height="6.96" rx="3.48"/><circle class="cls-3" cx="111.36" cy="369.94" r="9.61" transform="translate(-188.25 126.04) rotate(-34.1)"/><path class="cls-3" d="M168.37,389.91H102.14a1.77,1.77,0,1,1,0-3.53h66.23a1.77,1.77,0,1,1,0,3.53Z"/><path class="cls-3" d="M168.37,397.36H102.14a1.77,1.77,0,1,1,0-3.53h66.23a1.77,1.77,0,1,1,0,3.53Z"/><circle class="cls-3" cx="214.22" cy="447.68" r="16.88"/><path class="cls-2" d="M214.22,459.87a12.19,12.19,0,1,1,12.18-12.19A12.21,12.21,0,0,1,214.22,459.87Zm0-23.35a11.16,11.16,0,1,0,11.15,11.16A11.17,11.17,0,0,0,214.22,436.52Z"/><path class="cls-3" d="M232.86,439a1,1,0,0,1-.92-.56,1,1,0,0,1,.44-1.38L293,405.49a1,1,0,1,1,.95,1.82l-60.66,31.58A1,1,0,0,1,232.86,439Z"/><path class="cls-3" d="M269.15,448.71h0l-33.57-1.46a1,1,0,0,1,.09-2.05l33.57,1.46a1,1,0,0,1,0,2Z"/><path class="cls-3" d="M310.54,401.21a7.34,7.34,0,1,1-7.34-7.34A7.34,7.34,0,0,1,310.54,401.21Z"/><path class="cls-3" d="M289.38,447.68a7.85,7.85,0,1,1-7.85-7.85A7.84,7.84,0,0,1,289.38,447.68Z"/><path class="cls-3" d="M598.19,445.44H585.54a3.39,3.39,0,0,1-3.38-3.39V429.41a3.39,3.39,0,0,1,3.38-3.39h12.65a3.38,3.38,0,0,1,3.38,3.39v12.64A3.38,3.38,0,0,1,598.19,445.44Zm-12.65-17.36a1.33,1.33,0,0,0-1.33,1.33v12.64a1.33,1.33,0,0,0,1.33,1.33h12.65a1.33,1.33,0,0,0,1.33-1.33V429.41a1.33,1.33,0,0,0-1.33-1.33Z"/><path class="cls-3" d="M598.19,473.73H585.54a3.39,3.39,0,0,1-3.38-3.38V457.7a3.38,3.38,0,0,1,3.38-3.38h12.65a3.38,3.38,0,0,1,3.38,3.38v12.65A3.38,3.38,0,0,1,598.19,473.73Zm-12.65-17.36a1.34,1.34,0,0,0-1.33,1.33v12.65a1.34,1.34,0,0,0,1.33,1.33h12.65a1.34,1.34,0,0,0,1.33-1.33V457.7a1.34,1.34,0,0,0-1.33-1.33Z"/><path class="cls-8" d="M591.87,440.4h-.06a1,1,0,0,1-.74-.38l-5.5-6.84a1,1,0,0,1,.16-1.45,1,1,0,0,1,1.44.16l4.78,5.95,10.58-10.57a1,1,0,0,1,1.45,1.45L592.59,440.1A1,1,0,0,1,591.87,440.4Z"/><path class="cls-8" d="M591.87,468h-.06a1,1,0,0,1-.74-.39l-5.5-6.84a1,1,0,0,1,.16-1.44,1,1,0,0,1,1.44.15l4.78,6,10.58-10.58a1,1,0,0,1,1.45,1.45l-11.39,11.39A1,1,0,0,1,591.87,468Z"/><path class="cls-3" d="M651.07,437.18H616.31a1.75,1.75,0,0,1,0-3.5h34.76a1.75,1.75,0,0,1,0,3.5Z"/><path class="cls-3" d="M651.07,444H616.31a1.75,1.75,0,0,1,0-3.5h34.76a1.75,1.75,0,0,1,0,3.5Z"/><path class="cls-3" d="M651.07,465.77H616.31a1.75,1.75,0,1,1,0-3.49h34.76a1.75,1.75,0,1,1,0,3.49Z"/><path class="cls-3" d="M637.42,472.53H616.31a1.75,1.75,0,0,1,0-3.5h21.11a1.75,1.75,0,0,1,0,3.5Z"/><rect class="cls-1" x="695" y="243.14" width="13.54" height="13.54" rx="6.77"/><rect class="cls-1" x="722.16" y="243.14" width="13.54" height="13.54" rx="6.77"/><rect class="cls-2" x="751.34" y="243.14" width="13.54" height="13.54" rx="6.77"/><path class="cls-3" d="M144.29,305.86h-30a1.77,1.77,0,0,1,0-3.53h30a1.77,1.77,0,1,1,0,3.53Z"/><path class="cls-3" d="M144.29,312.16h-30a1.77,1.77,0,0,1,0-3.53h30a1.77,1.77,0,1,1,0,3.53Z"/><path class="cls-3" d="M144.29,319.73h-30a1.77,1.77,0,0,1,0-3.53h30a1.77,1.77,0,1,1,0,3.53Z"/><rect class="cls-2" x="168.93" y="344.78" width="41.47" height="18.48" rx="9.24"/><rect class="cls-1" x="615.86" y="273.94" width="127.01" height="6.59" rx="3.3"/><rect class="cls-1" x="615.86" y="286.41" width="127.01" height="6.59" rx="3.3"/></svg>