<svg width="1440" height="2253" viewBox="0 0 1440 2253" fill="none" xmlns="http://www.w3.org/2000/svg">
<g clip-path="url(#clip0)">
<rect width="1440" height="2253" fill="#02A7DF"/>
<path d="M-8.5 233.429C-54.5 225.029 -112.667 267.262 -136 289.429C-136 351.929 -124.5 482.029 -78.5 502.429C-21 527.929 -86 478.429 46 476.929C178 475.429 76 414.929 139.5 417.929C203 420.929 143 416.53 211 369.53C279 322.53 142.5 324.03 139.5 250.03C136.5 176.03 49 243.929 -8.5 233.429Z" fill="white" stroke="#FCDDEC"/>
<path d="M-8.5 1236.43C-54.5 1228.03 -112.667 1270.26 -136 1292.43C-136 1354.93 -124.5 1485.03 -78.5 1505.43C-21 1530.93 -86 1481.43 46 1479.93C178 1478.43 76 1417.93 139.5 1420.93C203 1423.93 143 1419.53 211 1372.53C279 1325.53 142.5 1327.03 139.5 1253.03C136.5 1179.03 49 1246.93 -8.5 1236.43Z" fill="white" stroke="#FCDDEC"/>
<path d="M1398.17 832.494C1443.29 844.761 1504.83 807.607 1529.95 787.497C1535.25 725.221 1534.81 594.615 1490.7 570.391C1435.57 540.112 1496.14 594.94 1364.49 585.253C1232.84 575.565 1329.35 644.489 1266.33 636.12C1203.31 627.752 1262.72 637.218 1190.99 678.289C1119.25 719.359 1255.39 729.428 1252.11 803.416C1248.83 877.404 1341.76 817.161 1398.17 832.494Z" fill="white" stroke="#FCDDEC"/>
<path d="M1398.17 1892.49C1443.29 1904.76 1504.83 1867.61 1529.95 1847.5C1535.25 1785.22 1534.81 1654.61 1490.7 1630.39C1435.57 1600.11 1496.14 1654.94 1364.49 1645.25C1232.84 1635.57 1329.35 1704.49 1266.33 1696.12C1203.31 1687.75 1262.72 1697.22 1190.99 1738.29C1119.25 1779.36 1255.39 1789.43 1252.11 1863.42C1248.83 1937.4 1341.76 1877.16 1398.17 1892.49Z" fill="white" stroke="#FCDDEC"/>
</g>
<defs>
<clipPath id="clip0">
<rect width="1440" height="2253" fill="white"/>
</clipPath>
</defs>
</svg>
